<svg xmlns="http://www.w3.org/2000/svg" viewBox="0 0 530.2 158.84"><defs><style>.cls-1{fill:#fff;}</style></defs><title>Skipping</title><g id="Capa_1" data-name="Capa 1"><path d="M43.8,128.48,22.15,91a23.12,23.12,0,0,1,0-23.12L43.8,30.36a23.1,23.1,0,0,1,20-11.56h43.3a23.12,23.12,0,0,1,20,11.56l21.65,37.5a23.12,23.12,0,0,1,0,23.12l-21.65,37.5a23.14,23.14,0,0,1-20,11.56H63.82A23.12,23.12,0,0,1,43.8,128.48Z"/><path d="M403.06,128.48,381.4,91a23.12,23.12,0,0,1,0-23.12l21.66-37.5a23.1,23.1,0,0,1,20-11.56h43.3a23.1,23.1,0,0,1,20,11.56l21.66,37.5a23.12,23.12,0,0,1,0,23.12l-21.66,37.5a23.12,23.12,0,0,1-20,11.56h-43.3A23.12,23.12,0,0,1,403.06,128.48Z"/><rect x="82.48" y="18.8" width="368.09" height="121.24"/><path class="cls-1" d="M170.28,39.07H143.57l-26,25.5V39.07H99V51a22,22,0,0,0-2.79-4.44,24.12,24.12,0,0,0-5.84-5.17,24.68,24.68,0,0,0-7.56-3.13,25.77,25.77,0,0,0-8.46-.77,23.52,23.52,0,0,0-14.4,6.26A24.51,24.51,0,0,0,55,50.28a22.69,22.69,0,0,0-2.47,8.52,24.38,24.38,0,0,0,.76,8.62,24.1,24.1,0,0,0,3.8,7.81,23.21,23.21,0,0,0,6.48,6,31.67,31.67,0,0,0,5.94,3c2,.73,3.88,1.39,5.71,2l2.91,1a24.49,24.49,0,0,1,2.59,1,9.9,9.9,0,0,1,2.47,1.71,7.48,7.48,0,0,1,1.43,1.92,5.71,5.71,0,0,1,.6,1.87,9.35,9.35,0,0,1,0,2.86,5.21,5.21,0,0,1-.6,1.81,9.16,9.16,0,0,1-1.43,1.92,7.42,7.42,0,0,1-2.47,1.65,9.65,9.65,0,0,1-4.51.88,8.29,8.29,0,0,1-4.29-1.43,10.33,10.33,0,0,1-2.52-2.47,8,8,0,0,1-1.43-5.11H49.35a27.57,27.57,0,0,0,3.3,13.35,27,27,0,0,0,9.23,9.95,25.55,25.55,0,0,0,7.2,3.24,28.49,28.49,0,0,0,7.64,1,29.84,29.84,0,0,0,5.93-.61A27.33,27.33,0,0,0,99,110.36v9.49h18.58V94.46l25.93,25.39h26.82L128.85,79.51ZM88.46,71.27c-1.31-.59-2.61-1.1-3.89-1.54s-2.54-.84-3.78-1.21c-1.4-.44-2.72-.89-4-1.37a24.51,24.51,0,0,1-3.41-1.6,5.23,5.23,0,0,1-2.2-3,5,5,0,0,1,.33-3.68,4.29,4.29,0,0,1,1.76-1.92,6.68,6.68,0,0,1,2.14-.77,5.32,5.32,0,0,1,1.87,0,7.11,7.11,0,0,0,1.05.16,11.06,11.06,0,0,1,2.8,1.32,3.81,3.81,0,0,1,1.59,3.52H99V79.77A26,26,0,0,0,88.46,71.27Z"/><path class="cls-1" d="M182.88,119.84H158.82V39.08h24.06Z"/><path class="cls-1" d="M244.82,73.14a33,33,0,0,1-2.58,13,34.07,34.07,0,0,1-7.15,10.72,34.48,34.48,0,0,1-10.6,7.3,32.84,32.84,0,0,1-13,2.81v12.85H193V39.19h18.57a32.19,32.19,0,0,1,13,2.85,35.39,35.39,0,0,1,10.6,7.37,33.91,33.91,0,0,1,7.15,10.71A33.1,33.1,0,0,1,244.82,73.14Zm-33.3,15.28A14.82,14.82,0,0,0,217.29,87,15.87,15.87,0,0,0,222,83.73a15.36,15.36,0,0,0,0-21.29,15.84,15.84,0,0,0-4.67-3.3,14.48,14.48,0,0,0-5.77-1.38Z"/><path class="cls-1" d="M303.09,73.14a33,33,0,0,1-2.58,13,33.88,33.88,0,0,1-7.14,10.72,34.52,34.52,0,0,1-10.61,7.3,32.79,32.79,0,0,1-13,2.81v12.85H251.23V39.19H269.8a32.14,32.14,0,0,1,13,2.85,35.43,35.43,0,0,1,10.61,7.37,33.72,33.72,0,0,1,7.14,10.71A33.1,33.1,0,0,1,303.09,73.14ZM269.8,88.42A14.86,14.86,0,0,0,275.57,87a16,16,0,0,0,4.67-3.31,15.27,15.27,0,0,0,3.13-4.8,15.43,15.43,0,0,0,0-11.69,15.27,15.27,0,0,0-3.13-4.8,16,16,0,0,0-4.67-3.3,14.52,14.52,0,0,0-5.77-1.38Z"/><path class="cls-1" d="M329,119.84H310.42V39.08H329Z"/><path class="cls-1" d="M383.71,39.19h18.57v80.65H382.17l-26.37-47v47H337.23V39.41h20.22l26.26,46.92Z"/><path class="cls-1" d="M480.85,74.68v45.16H462.17v-2a33.46,33.46,0,0,1-6.32,1.6,42.48,42.48,0,0,1-6.43.49,41.18,41.18,0,0,1-15.27-3,39.35,39.35,0,0,1-13.41-8.91,38.77,38.77,0,0,1-8.84-13.35A41.09,41.09,0,0,1,409,79.51a41.54,41.54,0,0,1,2.92-15.27,38.81,38.81,0,0,1,8.84-13.41,39.46,39.46,0,0,1,13.41-8.9,40.89,40.89,0,0,1,30.55,0,39.42,39.42,0,0,1,13.4,8.9L464.91,64a21,21,0,0,0-7.25-4.78,22.15,22.15,0,0,0-16.48,0A21,21,0,0,0,433.93,64a21.82,21.82,0,0,0,0,31,21.2,21.2,0,0,0,6.43,4.45,22,22,0,0,0,7.36,1.87,22.89,22.89,0,0,0,7.53-.72,21,21,0,0,0,6.92-3.29V93.25H446V74.68Z"/></g></svg>